<svg id="Layer_1" data-name="Layer 1" xmlns="http://www.w3.org/2000/svg" viewBox="0 0 498.58 512"><defs><style>.cls-1{fill:#7f40bd;}</style></defs><title>viber</title><path class="cls-1" d="M438,214.85c.62-72.19-60.87-138.36-137.05-147.51-1.52-.18-3.17-.45-4.91-.74a71.24,71.24,0,0,0-11.61-1.27c-15.61,0-19.79,11-20.89,17.51-1.07,6.36,0,11.7,3,15.88,5.17,7,14.27,8.28,21.58,9.28,2.14.3,4.16.57,5.85,1,68.45,15.29,91.5,39.34,102.76,107.21.28,1.66.4,3.7.53,5.87.49,8.11,1.52,25,19.66,25h0a32.23,32.23,0,0,0,4.82-.39c16.9-2.57,16.37-18,16.11-25.41a37.63,37.63,0,0,1,0-5.38A7.22,7.22,0,0,0,438,214.85Z" transform="translate(-6.71)"/><path class="cls-1" d="M280,40.85c2,.15,3.95.29,5.54.53,112.4,17.29,164.09,70.54,178.42,183.82a66.2,66.2,0,0,1,.32,6.76c.14,8.85.44,27.26,20.21,27.64h.61c6.2,0,11.13-1.87,14.66-5.56,6.16-6.44,5.73-16,5.38-23.69-.08-1.89-.17-3.66-.14-5.22C506.4,109.28,406.12,4.23,290.37.32a8,8,0,0,0-1.4.07,9.68,9.68,0,0,1-1.37.07c-1.15,0-2.57-.1-4.08-.2-1.82-.12-3.88-.27-6-.27-18.43,0-21.94,13.1-22.39,20.91C254.12,39,271.58,40.23,280,40.85Z" transform="translate(-6.71)"/><path class="cls-1" d="M458.51,371.6c-2.39-1.83-4.86-3.71-7.17-5.58-12.27-9.88-25.33-19-38-27.78l-7.85-5.48c-16.17-11.36-30.72-16.88-44.45-16.88-18.5,0-34.64,10.22-48,30.38-5.9,8.94-13.06,13.28-21.88,13.28-5.22,0-11.14-1.49-17.61-4.43-52.21-23.67-89.49-60-110.8-107.89-10.31-23.16-7-38.3,11.17-50.61,10.3-7,29.47-20,28.11-44.92-1.54-28.3-64-113.44-90.28-123.12C100.69,24.48,89,24.45,77,28.48,46.74,38.65,25,56.51,14.22,80.12c-10.46,22.81-10,49.6,1.37,77.46,32.82,80.56,79,150.8,137.13,208.76,56.95,56.74,126.95,103.22,208,138.14,7.31,3.15,15,4.86,20.58,6.11,1.91.43,3.56.8,4.76,1.12a8,8,0,0,0,2,.28h.64c38.14,0,83.94-34.85,98-74.59C499.09,402.62,476.59,385.42,458.51,371.6Z" transform="translate(-6.71)"/><path class="cls-1" d="M296.84,132.87c-6.53.17-20.12.5-24.89,14.34-2.23,6.47-2,12.08.8,16.69,4,6.76,11.8,8.83,18.86,10C317.2,178,330.34,192.13,333,218.4c1.22,12.25,9.47,20.8,20.06,20.8h0a19.75,19.75,0,0,0,2.38-.14c12.74-1.52,18.91-10.87,18.35-27.81.2-17.68-9-37.74-24.78-53.73S314.15,132.45,296.84,132.87Z" transform="translate(-6.71)"/></svg>