<svg id="Слой_1" data-name="Слой 1" xmlns="http://www.w3.org/2000/svg" viewBox="0 0 89.76 89.76"><defs><style>.cls-1{fill:#4d76a1;}.cls-2{fill:#fff;fill-rule:evenodd;}</style></defs><title>vk</title><path class="cls-1" d="M64.76,19.88A44.88,44.88,0,1,1,19.88-25,44.88,44.88,0,0,1,64.76,19.88Zm0,0" transform="translate(25 25)"/><path class="cls-2" d="M18.18,39.56h3.52a3,3,0,0,0,1.61-.7,2.58,2.58,0,0,0,.48-1.55s-.07-4.73,2.13-5.42,4.94,4.57,7.88,6.59a5.57,5.57,0,0,0,3.92,1.2l7.87-.11s4.12-.25,2.16-3.49c-.16-.27-1.14-2.39-5.85-6.77-4.93-4.58-4.27-3.84,1.67-11.76,3.62-4.82,5.07-7.77,4.62-9s-3.09-.88-3.09-.88l-8.86.06a2,2,0,0,0-1.14.2,2.46,2.46,0,0,0-.78,1A51.09,51.09,0,0,1,31,15.74c-3.94,6.7-5.52,7.05-6.17,6.64-1.5-1-1.12-3.9-1.12-6,0-6.49,1-9.2-1.92-9.9a15,15,0,0,0-4.13-.41c-3.16,0-5.84,0-7.36.75C9.33,7.34,8.55,8.44,9,8.5a4,4,0,0,1,2.62,1.32c.91,1.23.88,4,.88,4s.52,7.64-1.22,8.59c-1.2.65-2.83-.68-6.35-6.76A56.62,56.62,0,0,1,1.78,9.11a2.63,2.63,0,0,0-.73-1A3.68,3.68,0,0,0-.31,7.57l-8.42.05s-1.27,0-1.73.59,0,1.5,0,1.5S-3.9,25.13,3.57,32.9c6.84,7.13,14.62,6.66,14.62,6.66Zm0,0" transform="translate(25 25)"/></svg>