<svg id="Layer_1" data-name="Layer 1" xmlns="http://www.w3.org/2000/svg" viewBox="0 0 512 512"><defs><style>.cls-1{fill:#ededed;}.cls-2{fill:#55cd6c;}.cls-3{fill:#fefefe;}</style></defs><title>whatsapp</title><path class="cls-1" d="M0,512,35.31,384C12.36,344.28,0,300.14,0,254.23,0,114.76,114.76,0,255.12,0S512,114.76,512,254.23,395.48,512,255.12,512c-44.14,0-86.51-14.12-124.47-35.31Z"/><path class="cls-2" d="M137.71,430.79l7.94,4.41c32.66,20.3,70.62,32.66,110.34,32.66,115.64,0,211.86-96.22,211.86-213.63S371.64,44.14,255.12,44.14s-211,93.57-211,210.1A213.85,213.85,0,0,0,76.8,368.11l5.3,7.94-20.3,74.15Z"/><path class="cls-3" d="M187.14,135.94l-16.77-.88c-5.3,0-10.59,1.77-14.12,5.3-7.94,7.06-21.19,20.3-24.72,38-6.18,26.48,3.53,58.26,26.48,90s67.09,83,144.77,105c24.72,7.06,44.14,2.65,60-7.06a52.08,52.08,0,0,0,23-33.54l2.65-12.36a8.87,8.87,0,0,0-4.41-9.71l-55.61-25.6a8.42,8.42,0,0,0-10.59,2.65L295.72,316a6.87,6.87,0,0,1-7.06,1.77c-15-5.3-65.32-26.48-92.69-79.45-.88-2.65-.88-5.3.88-7.06L218,207.45c1.77-2.65,2.65-6.18,1.77-8.83l-25.6-57.38a7.69,7.69,0,0,0-7.06-5.3"/></svg>